<svg width="21" height="21" viewBox="0 0 21 21" fill="none" xmlns="http://www.w3.org/2000/svg">
<g id="add">
<path id="Vector" d="M10.5001 1.87891C5.7387 1.87891 1.87939 5.73822 1.87939 10.4996C1.87939 15.261 5.7387 19.1203 10.5001 19.1203C15.2615 19.1203 19.1208 15.261 19.1208 10.4996C19.1208 5.73822 15.2615 1.87891 10.5001 1.87891ZM14.9828 11.1892H11.1897V14.9824C11.1897 15.1653 11.1171 15.3407 10.9877 15.47C10.8584 15.5993 10.683 15.672 10.5001 15.672C10.3172 15.672 10.1418 15.5993 10.0124 15.47C9.88309 15.3407 9.81043 15.1653 9.81043 14.9824V11.1892H6.01733C5.83442 11.1892 5.659 11.1166 5.52967 10.9873C5.40033 10.8579 5.32767 10.6825 5.32767 10.4996C5.32767 10.3167 5.40033 10.1413 5.52967 10.0119C5.659 9.8826 5.83442 9.80994 6.01733 9.80994H9.81043V6.01684C9.81043 5.83393 9.88309 5.65851 10.0124 5.52918C10.1418 5.39984 10.3172 5.32718 10.5001 5.32718C10.683 5.32718 10.8584 5.39984 10.9877 5.52918C11.1171 5.65851 11.1897 5.83393 11.1897 6.01684V9.80994H14.9828C15.1657 9.80994 15.3412 9.8826 15.4705 10.0119C15.5998 10.1413 15.6725 10.3167 15.6725 10.4996C15.6725 10.6825 15.5998 10.8579 15.4705 10.9873C15.3412 11.1166 15.1657 11.1892 14.9828 11.1892Z" fill="#FFFFE6"/>
</g>
</svg>
