<svg width="20" height="21" viewBox="0 0 20 21" fill="none" xmlns="http://www.w3.org/2000/svg">
<g id="delete (1)">
<path id="Vector" d="M12.5001 2.75C12.7211 2.75 12.9331 2.8378 13.0893 2.99408C13.2456 3.15036 13.3334 3.36232 13.3334 3.58333H15.0001C15.2211 3.58333 15.4331 3.67113 15.5893 3.82741C15.7456 3.98369 15.8334 4.19565 15.8334 4.41667C15.8334 4.63768 15.7456 4.84964 15.5893 5.00592C15.4331 5.1622 15.2211 5.25 15.0001 5.25H5.00008C4.77907 5.25 4.56711 5.1622 4.41083 5.00592C4.25455 4.84964 4.16675 4.63768 4.16675 4.41667C4.16675 4.19565 4.25455 3.98369 4.41083 3.82741C4.56711 3.67113 4.77907 3.58333 5.00008 3.58333H6.66675C6.66675 3.36232 6.75455 3.15036 6.91083 2.99408C7.06711 2.8378 7.27907 2.75 7.50008 2.75H12.5001Z" fill="#1E1E1E"/>
<path id="Vector_2" fill-rule="evenodd" clip-rule="evenodd" d="M5 6.08301H15V16.083C15 16.525 14.8244 16.949 14.5118 17.2615C14.1993 17.5741 13.7754 17.7497 13.3333 17.7497H6.66667C6.22464 17.7497 5.80072 17.5741 5.48816 17.2615C5.17559 16.949 5 16.525 5 16.083V6.08301ZM7.91667 7.74967C7.80616 7.74967 7.70018 7.79357 7.62204 7.87171C7.5439 7.94985 7.5 8.05583 7.5 8.16634V15.6663C7.5 15.7768 7.5439 15.8828 7.62204 15.961C7.70018 16.0391 7.80616 16.083 7.91667 16.083C8.02717 16.083 8.13315 16.0391 8.21129 15.961C8.28943 15.8828 8.33333 15.7768 8.33333 15.6663V8.16634C8.33333 8.05583 8.28943 7.94985 8.21129 7.87171C8.13315 7.79357 8.02717 7.74967 7.91667 7.74967ZM12.0833 7.74967C11.9728 7.74967 11.8668 7.79357 11.7887 7.87171C11.7106 7.94985 11.6667 8.05583 11.6667 8.16634V15.6663C11.6667 15.7768 11.7106 15.8828 11.7887 15.961C11.8668 16.0391 11.9728 16.083 12.0833 16.083C12.1938 16.083 12.2998 16.0391 12.378 15.961C12.4561 15.8828 12.5 15.7768 12.5 15.6663V8.16634C12.5 8.05583 12.4561 7.94985 12.378 7.87171C12.2998 7.79357 12.1938 7.74967 12.0833 7.74967Z" fill="#1E1E1E"/>
</g>
</svg>
