<svg width="21" height="20" viewBox="0 0 21 20" fill="none" xmlns="http://www.w3.org/2000/svg">
<g id="minus">
<path id="Vector" d="M10.5001 1.66699C8.85191 1.66699 7.24074 2.15573 5.87033 3.07141C4.49992 3.98709 3.43182 5.28858 2.80109 6.8113C2.17036 8.33401 2.00533 10.0096 2.32687 11.6261C2.64842 13.2426 3.44209 14.7274 4.60753 15.8929C5.77297 17.0583 7.25782 17.852 8.87433 18.1735C10.4908 18.4951 12.1664 18.3301 13.6891 17.6993C15.2118 17.0686 16.5133 16.0005 17.429 14.6301C18.3447 13.2597 18.8334 11.6485 18.8334 10.0003C18.8334 8.90598 18.6179 7.82234 18.1991 6.8113C17.7803 5.80025 17.1665 4.88159 16.3926 4.10777C15.6188 3.33395 14.7002 2.72012 13.6891 2.30133C12.6781 1.88254 11.5944 1.66699 10.5001 1.66699ZM10.5001 16.667C9.18154 16.667 7.89261 16.276 6.79628 15.5435C5.69996 14.8109 4.84547 13.7697 4.34089 12.5515C3.8363 11.3334 3.70428 9.99293 3.96152 8.69972C4.21875 7.40652 4.85369 6.21863 5.78604 5.28628C6.71839 4.35393 7.90628 3.71899 9.19948 3.46176C10.4927 3.20452 11.8331 3.33654 13.0513 3.84113C14.2695 4.34571 15.3107 5.2002 16.0432 6.29652C16.7758 7.39285 17.1668 8.68178 17.1668 10.0003C17.1668 11.7684 16.4644 13.4641 15.2141 14.7144C13.9639 15.9646 12.2682 16.667 10.5001 16.667ZM13.8334 9.16699H7.16675C6.94574 9.16699 6.73378 9.25479 6.5775 9.41107C6.42122 9.56735 6.33342 9.77931 6.33342 10.0003C6.33342 10.2213 6.42122 10.4333 6.5775 10.5896C6.73378 10.7459 6.94574 10.8337 7.16675 10.8337H13.8334C14.0544 10.8337 14.2664 10.7459 14.4227 10.5896C14.579 10.4333 14.6668 10.2213 14.6668 10.0003C14.6668 9.77931 14.579 9.56735 14.4227 9.41107C14.2664 9.25479 14.0544 9.16699 13.8334 9.16699Z" fill="#FFFFE6"/>
</g>
</svg>
