<svg width="21" height="21" viewBox="0 0 21 21" fill="none" xmlns="http://www.w3.org/2000/svg">
<g id="reserved">
<path id="Vector" d="M3.48318 9.39967L4.37485 13.8747H4.23318C3.78318 13.8747 3.35818 13.6663 3.08318 13.308C2.79985 12.958 2.70818 12.4997 2.81652 12.0663L3.48318 9.39967ZM17.9057 14.7022C17.469 15.2355 16.8223 15.5413 16.1332 15.5413H7.86568C6.77652 15.5413 5.83235 14.7663 5.61902 13.6988L4.61902 8.69967C4.48402 8.02301 4.65652 7.32967 5.09318 6.79717C5.52985 6.26467 6.17652 5.95801 6.86568 5.95801H15.1332C16.2224 5.95801 17.1665 6.73301 17.3798 7.80051L18.3798 12.7997C18.5148 13.4763 18.3423 14.1697 17.9057 14.7022ZM15.4573 10.7497C15.4573 10.4047 15.1774 10.1247 14.8323 10.1247H8.16568C7.82068 10.1247 7.54068 10.4047 7.54068 10.7497C7.54068 11.0947 7.82068 11.3747 8.16568 11.3747H14.8323C15.1774 11.3747 15.4573 11.0947 15.4573 10.7497Z" fill="#1E1E1E"/>
</g>
</svg>
