<svg width="21" height="20" viewBox="0 0 21 20" fill="none" xmlns="http://www.w3.org/2000/svg">
<g id="tag" clip-path="url(#clip0_1026_1894)">
<path id="Vector" d="M0.083252 11.25L10.0833 1.25L18.2083 1.875L18.8333 10L8.83325 20L0.083252 11.25ZM12.5833 5.625C12.5833 6.12228 12.7808 6.59919 13.1324 6.95083C13.4841 7.30246 13.961 7.5 14.4583 7.5C14.9555 7.5 15.4324 7.30246 15.7841 6.95083C16.1357 6.59919 16.3333 6.12228 16.3333 5.625C16.3333 5.12772 16.1357 4.65081 15.7841 4.29917C15.4324 3.94754 14.9555 3.75 14.4583 3.75C13.961 3.75 13.4841 3.94754 13.1324 4.29917C12.7808 4.65081 12.5833 5.12772 12.5833 5.625Z" fill="#FFFFE6"/>
</g>
<defs>
<clipPath id="clip0_1026_1894">
<rect width="20" height="20" fill="white" transform="translate(0.083252)"/>
</clipPath>
</defs>
</svg>
