<svg width="21" height="21" viewBox="0 0 21 21" fill="none" xmlns="http://www.w3.org/2000/svg">
<g id="update" clip-path="url(#clip0_1003_1966)">
<path id="Vector" d="M10.4999 5.49967V7.99967L13.8333 4.66634L10.4999 1.33301V3.83301C6.81659 3.83301 3.83325 6.81634 3.83325 10.4997C3.83325 11.808 4.21659 13.0205 4.86659 14.0497L6.08325 12.833C5.71242 12.1372 5.49992 11.3455 5.49992 10.4997C5.49992 7.73717 7.73742 5.49967 10.4999 5.49967ZM16.1333 6.94967L14.9166 8.16634C15.2874 8.86217 15.4999 9.65384 15.4999 10.4997C15.4999 13.2622 13.2624 15.4997 10.4999 15.4997V12.9997L7.16659 16.333L10.4999 19.6663V17.1663C14.1833 17.1663 17.1666 14.183 17.1666 10.4997C17.1666 9.19134 16.7833 7.97884 16.1333 6.94967Z" fill="#FFFFE6"/>
</g>
<defs>
<clipPath id="clip0_1003_1966">
<rect width="20" height="20" fill="white" transform="translate(0.5 0.5)"/>
</clipPath>
</defs>
</svg>
