<svg width="21" height="21" viewBox="0 0 21 21" fill="none" xmlns="http://www.w3.org/2000/svg">
<g id="approve 1">
<path id="Vector" d="M10.4991 2.41699C5.91577 2.41699 2.16577 6.16699 2.16577 10.7503C2.16577 15.3337 5.91577 19.0837 10.4991 19.0837C15.0824 19.0837 18.8324 15.3337 18.8324 10.7503C18.8324 6.16699 15.0824 2.41699 10.4991 2.41699ZM13.9991 9.33366L9.9991 13.3337C9.66577 13.667 9.16577 13.667 8.83244 13.3337L6.9991 11.5003C6.66577 11.167 6.66577 10.667 6.9991 10.3337C7.33244 10.0003 7.83244 10.0003 8.16577 10.3337L9.41577 11.5837L12.8324 8.16699C13.1658 7.83366 13.6658 7.83366 13.9991 8.16699C14.3324 8.50033 14.3324 9.00033 13.9991 9.33366Z" fill="#1E1E1E"/>
</g>
</svg>
