<svg width="21" height="21" viewBox="0 0 21 21" fill="none" xmlns="http://www.w3.org/2000/svg">
<g id="cancel (2) 1">
<path id="Vector" d="M17.0536 4.65408C13.6867 1.28718 8.22874 1.28718 4.86184 4.65408C1.49495 8.02097 1.49495 13.4789 4.86184 16.8458C8.22874 20.2127 13.6867 20.2127 17.0536 16.8458C20.4205 13.4789 20.4198 8.02097 17.0536 4.65408ZM14.6149 13.432C14.7443 13.5613 14.8169 13.7367 14.8169 13.9196C14.8169 14.1025 14.7443 14.2779 14.6149 14.4072C14.4856 14.5365 14.3102 14.6091 14.1274 14.6091C13.9445 14.6091 13.7691 14.5365 13.6398 14.4072L10.9577 11.7251L8.27563 14.4072C8.21174 14.4714 8.13576 14.5224 8.05209 14.5572C7.96841 14.592 7.87868 14.61 7.78805 14.61C7.69742 14.61 7.60769 14.592 7.52401 14.5572C7.44033 14.5224 7.36436 14.4714 7.30046 14.4072C7.23636 14.3432 7.18551 14.2672 7.15081 14.1835C7.11612 14.0999 7.09826 14.0102 7.09826 13.9196C7.09826 13.829 7.11612 13.7393 7.15081 13.6557C7.18551 13.572 7.23636 13.496 7.30046 13.432L9.98253 10.7499L7.30046 8.06787C7.17115 7.93856 7.0985 7.76317 7.0985 7.58029C7.0985 7.39741 7.17115 7.22201 7.30046 7.0927C7.42978 6.96338 7.60517 6.89073 7.78805 6.89073C7.97093 6.89073 8.14632 6.96338 8.27563 7.0927L10.9577 9.77477L13.6398 7.0927C13.7038 7.02867 13.7798 6.97788 13.8635 6.94322C13.9471 6.90857 14.0368 6.89073 14.1274 6.89073C14.2179 6.89073 14.3076 6.90857 14.3912 6.94322C14.4749 6.97788 14.5509 7.02867 14.6149 7.0927C14.679 7.15673 14.7298 7.23275 14.7644 7.31641C14.7991 7.40007 14.8169 7.48973 14.8169 7.58029C14.8169 7.67084 14.7991 7.76051 14.7644 7.84417C14.7298 7.92783 14.679 8.00384 14.6149 8.06787L11.9329 10.7499L14.6149 13.432Z" fill="#1E1E1E"/>
</g>
</svg>
