<svg width="25" height="20" viewBox="0 0 25 20" fill="none" xmlns="http://www.w3.org/2000/svg">
<g id="date-check-in-icon" clip-path="url(#clip0_2224_5812)">
<path id="Vector" d="M16.6323 20H1.7205C1.24836 20 0.818963 19.8062 0.50663 19.4948C0.193812 19.1815 0 18.7516 0 18.2795V3.45169C0 2.98004 0.193812 2.55015 0.505173 2.23782C0.818963 1.925 1.24885 1.73119 1.7205 1.73119H3.30694V3.84806C3.30694 4.44067 3.5809 4.96187 4.02244 5.32375L4.02487 5.32083C4.39841 5.62588 4.89338 5.81483 5.42333 5.81483C5.95813 5.81483 6.45407 5.62734 6.82372 5.32423V5.31938C7.26575 4.95653 7.53922 4.4363 7.53922 3.84806V1.73119H10.7432V3.84806C10.7432 4.38238 10.9691 4.85986 11.3416 5.21543L11.4587 5.32423C11.8283 5.62685 12.3243 5.81483 12.8591 5.81483C13.3298 5.81483 13.7733 5.66571 14.1278 5.41847L14.26 5.32375C14.7015 4.96187 14.9755 4.44067 14.9755 3.84806V1.73119H16.6323C17.104 1.73119 17.5344 1.925 17.8462 2.23733C18.1585 2.54821 18.3524 2.97858 18.3524 3.45169V8.40628C18.1692 8.56997 17.9851 8.7361 17.801 8.90319V6.712H0.551319V18.0959C0.551319 18.8396 1.15996 19.4487 1.90411 19.4487H16.4482C17.1924 19.4487 17.801 18.8386 17.801 18.0959V16.2161L18.3524 16.711V18.2795C18.3524 18.7531 18.1585 19.1835 17.8472 19.4948C17.5344 19.8062 17.104 20 16.6323 20ZM21.345 16.66C21.2731 15.9382 21.2139 15.0775 21.1702 14.3926H24.8701V10.8879H21.0949C21.1138 10.2026 21.1517 9.33987 21.2095 8.6166C21.2561 8.32759 20.9161 8.14252 20.697 8.32904L16.2651 12.3753C16.134 12.488 16.1184 12.6866 16.2311 12.8178L16.2671 12.8537L20.8335 16.952C21.0575 17.1419 21.3926 16.9422 21.345 16.66ZM12.029 0.681012C12.029 0.305533 12.4001 0 12.8591 0C13.3186 0 13.6902 0.305533 13.6902 0.681012V3.84806C13.6902 4.22402 13.3186 4.52907 12.8591 4.52907C12.4001 4.52907 12.029 4.22402 12.029 3.84806V0.681012ZM4.59222 0.681012C4.59222 0.305533 4.9643 0 5.42333 0C5.88235 0 6.25395 0.305533 6.25395 0.681012V3.84806C6.25395 4.22402 5.88235 4.52907 5.42333 4.52907C4.9643 4.52907 4.59222 4.22402 4.59222 3.84806V0.681012ZM3.09661 13.9442H5.56176C5.7342 13.9442 5.87555 14.0866 5.87555 14.2585V16.3088C5.87555 16.4808 5.73323 16.6231 5.56176 16.6231H3.09661C2.92466 16.6231 2.78234 16.4813 2.78234 16.3088V14.2585C2.78234 14.0856 2.92418 13.9442 3.09661 13.9442ZM12.7717 9.13635H15.2368C15.4092 9.13635 15.5506 9.27819 15.5506 9.45014V11.0108L15.2188 11.33C15.0738 11.4703 14.9535 11.6342 14.8633 11.8147H12.7717C12.5997 11.8147 12.4574 11.6734 12.4574 11.5005V9.45014C12.4574 9.27721 12.5992 9.13635 12.7717 9.13635ZM12.7717 13.9442H15.2368L15.2737 13.9467L15.2829 13.9544L15.5423 14.1876C15.5477 14.2104 15.5506 14.2337 15.5506 14.2585V16.3088C15.5506 16.4808 15.4083 16.6231 15.2368 16.6231H12.7717C12.5997 16.6231 12.4574 16.4813 12.4574 16.3088V14.2585C12.4574 14.0856 12.5992 13.9442 12.7717 13.9442ZM7.96959 9.13635H10.4343C10.6067 9.13635 10.748 9.27819 10.748 9.45014V11.5005C10.748 11.6724 10.6062 11.8147 10.4343 11.8147H7.96959C7.79764 11.8147 7.65532 11.6734 7.65532 11.5005V9.45014C7.65532 9.27721 7.79667 9.13635 7.96959 9.13635ZM3.09661 9.13635H5.56176C5.7342 9.13635 5.87555 9.27819 5.87555 9.45014V11.5005C5.87555 11.6724 5.73323 11.8147 5.56176 11.8147H3.09661C2.92466 11.8147 2.78234 11.6734 2.78234 11.5005V9.45014C2.78234 9.27721 2.92418 9.13635 3.09661 9.13635ZM7.96959 13.9442H10.4343C10.6067 13.9442 10.748 14.0866 10.748 14.2585V16.3088C10.748 16.4808 10.6062 16.6231 10.4343 16.6231H7.96959C7.79764 16.6231 7.65532 16.4813 7.65532 16.3088V14.2585C7.65532 14.0856 7.79667 13.9442 7.96959 13.9442Z" fill="#1E1E1E"/>
</g>
<defs>
<clipPath id="clip0_2224_5812">
<rect width="24.8701" height="20" fill="white"/>
</clipPath>
</defs>
</svg>
