<svg width="21" height="21" viewBox="0 0 21 21" fill="none" xmlns="http://www.w3.org/2000/svg">
<g id="delete (1)">
<path id="Vector" d="M13.0001 3C13.2211 3 13.4331 3.0878 13.5893 3.24408C13.7456 3.40036 13.8334 3.61232 13.8334 3.83333H15.5001C15.7211 3.83333 15.9331 3.92113 16.0893 4.07741C16.2456 4.23369 16.3334 4.44565 16.3334 4.66667C16.3334 4.88768 16.2456 5.09964 16.0893 5.25592C15.9331 5.4122 15.7211 5.5 15.5001 5.5H5.50008C5.27907 5.5 5.06711 5.4122 4.91083 5.25592C4.75455 5.09964 4.66675 4.88768 4.66675 4.66667C4.66675 4.44565 4.75455 4.23369 4.91083 4.07741C5.06711 3.92113 5.27907 3.83333 5.50008 3.83333H7.16675C7.16675 3.61232 7.25455 3.40036 7.41083 3.24408C7.56711 3.0878 7.77907 3 8.00008 3H13.0001Z" fill="#FFFFE6"/>
<path id="Vector_2" fill-rule="evenodd" clip-rule="evenodd" d="M5.5 6.33301H15.5V16.333C15.5 16.775 15.3244 17.199 15.0118 17.5115C14.6993 17.8241 14.2754 17.9997 13.8333 17.9997H7.16667C6.72464 17.9997 6.30072 17.8241 5.98816 17.5115C5.67559 17.199 5.5 16.775 5.5 16.333V6.33301ZM8.41667 7.99967C8.30616 7.99967 8.20018 8.04357 8.12204 8.12171C8.0439 8.19985 8 8.30583 8 8.41634V15.9163C8 16.0268 8.0439 16.1328 8.12204 16.211C8.20018 16.2891 8.30616 16.333 8.41667 16.333C8.52717 16.333 8.63315 16.2891 8.71129 16.211C8.78943 16.1328 8.83333 16.0268 8.83333 15.9163V8.41634C8.83333 8.30583 8.78943 8.19985 8.71129 8.12171C8.63315 8.04357 8.52717 7.99967 8.41667 7.99967ZM12.5833 7.99967C12.4728 7.99967 12.3668 8.04357 12.2887 8.12171C12.2106 8.19985 12.1667 8.30583 12.1667 8.41634V15.9163C12.1667 16.0268 12.2106 16.1328 12.2887 16.211C12.3668 16.2891 12.4728 16.333 12.5833 16.333C12.6938 16.333 12.7998 16.2891 12.878 16.211C12.9561 16.1328 13 16.0268 13 15.9163V8.41634C13 8.30583 12.9561 8.19985 12.878 8.12171C12.7998 8.04357 12.6938 7.99967 12.5833 7.99967Z" fill="#FFFFE6"/>
</g>
</svg>
