<svg width="21" height="20" viewBox="0 0 21 20" fill="none" xmlns="http://www.w3.org/2000/svg">
<g id="time (1) 1">
<path id="Vector" d="M13.207 10.625H10.082C9.91627 10.625 9.7573 10.5592 9.64009 10.4419C9.52288 10.3247 9.45703 10.1658 9.45703 10V5.625C9.45703 5.45924 9.52288 5.30027 9.64009 5.18306C9.7573 5.06585 9.91627 5 10.082 5C10.2478 5 10.4068 5.06585 10.524 5.18306C10.6412 5.30027 10.707 5.45924 10.707 5.625V9.375H13.207C13.3728 9.375 13.5318 9.44085 13.649 9.55806C13.7662 9.67527 13.832 9.83424 13.832 10C13.832 10.1658 13.7662 10.3247 13.649 10.4419C13.5318 10.5592 13.3728 10.625 13.207 10.625Z" fill="#FFFFE6"/>
<path id="Vector_2" d="M15.3946 15.3125C14.3832 16.3256 13.103 17.0281 11.7053 17.3371C10.3075 17.646 8.85049 17.5485 7.50637 17.056C6.16224 16.5635 4.98714 15.6966 4.11985 14.5577C3.25256 13.4188 2.72933 12.0555 2.61193 10.6288C2.49454 9.20215 2.7879 7.77166 3.45737 6.50633C4.12683 5.24101 5.14443 4.19371 6.38998 3.48812C7.63552 2.78254 9.05698 2.44816 10.4865 2.52446C11.9159 2.60077 13.2937 3.08458 14.4571 3.91875V3.125C14.4571 2.95924 14.5229 2.80027 14.6401 2.68306C14.7573 2.56585 14.9163 2.5 15.0821 2.5C15.2478 2.5 15.4068 2.56585 15.524 2.68306C15.6412 2.80027 15.7071 2.95924 15.7071 3.125V5.625C15.7071 5.79076 15.6412 5.94973 15.524 6.06694C15.4068 6.18415 15.2478 6.25 15.0821 6.25H13.2071C13.0413 6.25 12.8823 6.18415 12.7651 6.06694C12.6479 5.94973 12.5821 5.79076 12.5821 5.625C12.5821 5.45924 12.6479 5.30027 12.7651 5.18306C12.8823 5.06585 13.0413 5 13.2071 5H13.8321C12.6464 4.11071 11.1833 3.67171 9.70389 3.76136C8.2245 3.85102 6.8251 4.46349 5.7555 5.48945C4.6859 6.51542 4.01571 7.8881 3.86455 9.36249C3.71339 10.8369 4.09111 12.317 4.93027 13.5386C5.76944 14.7603 7.01544 15.644 8.44587 16.032C9.87629 16.42 11.398 16.287 12.7395 15.6568C14.081 15.0266 15.1548 13.9402 15.7693 12.5915C16.3839 11.2428 16.4992 9.71957 16.0946 8.29375C16.0652 8.21293 16.0529 8.12693 16.0583 8.04112C16.0637 7.95531 16.0867 7.87153 16.126 7.79504C16.1652 7.71854 16.2198 7.65096 16.2864 7.59654C16.353 7.54211 16.43 7.502 16.5128 7.47872C16.5956 7.45544 16.6823 7.44949 16.7674 7.46124C16.8526 7.47299 16.9344 7.50219 17.0078 7.54701C17.0812 7.59183 17.1445 7.65131 17.1939 7.72173C17.2432 7.79214 17.2775 7.87198 17.2946 7.95625C17.6616 9.24052 17.679 10.5995 17.345 11.8928C17.011 13.186 16.3376 14.3666 15.3946 15.3125Z" fill="#FFFFE6"/>
</g>
</svg>
