<svg width="21" height="20" viewBox="0 0 21 20" fill="none" xmlns="http://www.w3.org/2000/svg">
<g id="order-history (2) 1">
<path id="Vector" d="M5.91577 5.625C5.91577 5.45924 5.98162 5.30027 6.09883 5.18306C6.21604 5.06585 6.37501 5 6.54077 5H9.04077C9.20653 5 9.3655 5.06585 9.48271 5.18306C9.59992 5.30027 9.66577 5.45924 9.66577 5.625C9.66577 5.79076 9.59992 5.94973 9.48271 6.06694C9.3655 6.18415 9.20653 6.25 9.04077 6.25H6.54077C6.37501 6.25 6.21604 6.18415 6.09883 6.06694C5.98162 5.94973 5.91577 5.79076 5.91577 5.625ZM10.9158 7.5H6.54077C6.37501 7.5 6.21604 7.56585 6.09883 7.68306C5.98162 7.80027 5.91577 7.95924 5.91577 8.125C5.91577 8.29076 5.98162 8.44973 6.09883 8.56694C6.21604 8.68415 6.37501 8.75 6.54077 8.75H10.9158C11.0815 8.75 11.2405 8.68415 11.3577 8.56694C11.4749 8.44973 11.5408 8.29076 11.5408 8.125C11.5408 7.95924 11.4749 7.80027 11.3577 7.68306C11.2405 7.56585 11.0815 7.5 10.9158 7.5ZM10.9158 10H6.54077C6.37501 10 6.21604 10.0658 6.09883 10.1831C5.98162 10.3003 5.91577 10.4592 5.91577 10.625C5.91577 10.7908 5.98162 10.9497 6.09883 11.0669C6.21604 11.1842 6.37501 11.25 6.54077 11.25H10.9158C11.0815 11.25 11.2405 11.1842 11.3577 11.0669C11.4749 10.9497 11.5408 10.7908 11.5408 10.625C11.5408 10.4592 11.4749 10.3003 11.3577 10.1831C11.2405 10.0658 11.0815 10 10.9158 10ZM19.0408 5C19.0424 5.60036 18.8994 6.19228 18.624 6.72573C18.3485 7.25918 17.9487 7.71848 17.4583 8.06482C16.9679 8.41116 16.4014 8.63435 15.8065 8.71554C15.2117 8.79672 14.606 8.73351 14.0408 8.53125V16.875C14.0408 17.3723 13.8432 17.8492 13.4916 18.2008C13.14 18.5525 12.6631 18.75 12.1658 18.75H4.04077C3.54349 18.75 3.06658 18.5525 2.71495 18.2008C2.36332 17.8492 2.16577 17.3723 2.16577 16.875V15.625C2.16577 15.4592 2.23162 15.3003 2.34883 15.1831C2.46604 15.0658 2.62501 15 2.79077 15H3.41577V3.75C3.41577 3.08696 3.67916 2.45107 4.148 1.98223C4.61685 1.51339 5.25273 1.25 5.91577 1.25H13.4158C13.5143 1.25093 13.6112 1.27555 13.6982 1.32178C13.7852 1.36801 13.8598 1.4345 13.9158 1.51562C14.484 1.28974 15.0989 1.20653 15.7067 1.27327C16.3146 1.34001 16.8968 1.55466 17.4025 1.89846C17.9081 2.24226 18.3219 2.70473 18.6075 3.24541C18.8931 3.78609 19.0418 4.38852 19.0408 5ZM4.04077 17.5H10.4058C10.3317 17.2998 10.2928 17.0884 10.2908 16.875V16.25H3.41577V16.875C3.41577 17.0408 3.48162 17.1997 3.59883 17.3169C3.71604 17.4342 3.87501 17.5 4.04077 17.5ZM12.7908 7.7875C12.4231 7.46021 12.1239 7.06339 11.9103 6.61993C11.6967 6.17646 11.573 5.6951 11.5462 5.2036C11.5195 4.7121 11.5903 4.22017 11.7546 3.75616C11.9188 3.29215 12.1733 2.86523 12.5033 2.5H5.91577C5.58425 2.5 5.26631 2.6317 5.03189 2.86612C4.79747 3.10054 4.66577 3.41848 4.66577 3.75V15H10.9158C11.0815 15 11.2405 15.0658 11.3577 15.1831C11.4749 15.3003 11.5408 15.4592 11.5408 15.625V16.875C11.5408 17.0408 11.6066 17.1997 11.7238 17.3169C11.841 17.4342 12 17.5 12.1658 17.5C12.3315 17.5 12.4905 17.4342 12.6077 17.3169C12.7249 17.1997 12.7908 17.0408 12.7908 16.875V7.7875ZM17.7908 5C17.7908 4.50555 17.6441 4.0222 17.3694 3.61107C17.0947 3.19995 16.7043 2.87952 16.2475 2.6903C15.7907 2.50108 15.288 2.45157 14.803 2.54804C14.3181 2.6445 13.8726 2.8826 13.523 3.23223C13.1734 3.58186 12.9353 4.02732 12.8388 4.51227C12.7423 4.99723 12.7919 5.49989 12.9811 5.95671C13.1703 6.41352 13.4907 6.80397 13.9018 7.07867C14.313 7.35338 14.7963 7.5 15.2908 7.5C15.9538 7.5 16.5897 7.23661 17.0585 6.76777C17.5274 6.29893 17.7908 5.66304 17.7908 5ZM16.5408 4.375H15.9158C15.9158 4.20924 15.8499 4.05027 15.7327 3.93306C15.6155 3.81585 15.4565 3.75 15.2908 3.75C15.125 3.75 14.966 3.81585 14.8488 3.93306C14.7316 4.05027 14.6658 4.20924 14.6658 4.375V5C14.6658 5.16576 14.7316 5.32473 14.8488 5.44194C14.966 5.55915 15.125 5.625 15.2908 5.625H16.5408C16.7065 5.625 16.8655 5.55915 16.9827 5.44194C17.0999 5.32473 17.1658 5.16576 17.1658 5C17.1658 4.83424 17.0999 4.67527 16.9827 4.55806C16.8655 4.44085 16.7065 4.375 16.5408 4.375Z" fill="#FFFFE6"/>
</g>
</svg>
