<svg width="21" height="20" viewBox="0 0 21 20" fill="none" xmlns="http://www.w3.org/2000/svg">
<g id="review (1)">
<path id="Vector" d="M17.0316 3.4375H4.3003C3.84446 3.4375 3.40729 3.61858 3.08496 3.94091C2.76263 4.26324 2.58155 4.70041 2.58155 5.15625V16.0938C2.58099 16.1914 2.61074 16.2869 2.66672 16.3669C2.72269 16.4469 2.80212 16.5076 2.89405 16.5406C2.94342 16.5568 2.99525 16.5642 3.04718 16.5625C3.11797 16.5637 3.18809 16.5486 3.25205 16.5182C3.31602 16.4878 3.37211 16.4431 3.41593 16.3875L5.60343 13.5969H17.0316C17.4874 13.5969 17.9246 13.4158 18.2469 13.0935C18.5692 12.7711 18.7503 12.334 18.7503 11.8781V5.1625C18.7511 4.93627 18.7073 4.71209 18.6213 4.50284C18.5353 4.29359 18.4088 4.10338 18.2491 3.94312C18.0894 3.78285 17.8997 3.65569 17.6907 3.56893C17.4818 3.48216 17.2578 3.4375 17.0316 3.4375ZM15.4691 11.3562H5.8503C5.72598 11.3562 5.60675 11.3069 5.51884 11.219C5.43094 11.131 5.38155 11.0118 5.38155 10.8875C5.38155 10.7632 5.43094 10.644 5.51884 10.556C5.60675 10.4681 5.72598 10.4187 5.8503 10.4187H15.4816C15.6059 10.4187 15.7251 10.4681 15.813 10.556C15.9009 10.644 15.9503 10.7632 15.9503 10.8875C15.9503 11.0118 15.9009 11.131 15.813 11.219C15.7251 11.3069 15.6059 11.3562 15.4816 11.3562H15.4691ZM15.4691 8.98125H5.8503C5.72598 8.98125 5.60675 8.93186 5.51884 8.84396C5.43094 8.75605 5.38155 8.63682 5.38155 8.5125C5.38155 8.38818 5.43094 8.26895 5.51884 8.18104C5.60675 8.09314 5.72598 8.04375 5.8503 8.04375H15.4816C15.6059 8.04375 15.7251 8.09314 15.813 8.18104C15.9009 8.26895 15.9503 8.38818 15.9503 8.5125C15.9503 8.63682 15.9009 8.75605 15.813 8.84396C15.7251 8.93186 15.6059 8.98125 15.4816 8.98125H15.4691ZM15.4691 6.60312H9.6003C9.47598 6.60312 9.35675 6.55374 9.26885 6.46583C9.18094 6.37792 9.13155 6.25869 9.13155 6.13437C9.13155 6.01005 9.18094 5.89083 9.26885 5.80292C9.35675 5.71501 9.47598 5.66562 9.6003 5.66562H15.4816C15.6059 5.66562 15.7251 5.71501 15.813 5.80292C15.9009 5.89083 15.9503 6.01005 15.9503 6.13437C15.9503 6.25869 15.9009 6.37792 15.813 6.46583C15.7251 6.55374 15.6059 6.60312 15.4816 6.60312H15.4691Z" fill="#FFFFE6"/>
</g>
</svg>
