<svg width="21" height="20" viewBox="0 0 21 20" fill="none" xmlns="http://www.w3.org/2000/svg">
<g id="Staff">
<path id="Vector" d="M10.8953 1.25C10.3617 1.24975 9.83332 1.35467 9.34032 1.55874C8.84732 1.76281 8.39938 2.06204 8.02209 2.43933C7.64481 2.81662 7.34557 3.26456 7.1415 3.75756C6.93743 4.25055 6.83252 4.77894 6.83276 5.3125C6.83276 7.5575 8.65026 9.375 10.8953 9.375C13.1403 9.375 14.9578 7.5575 14.9578 5.3125C14.9578 3.0675 13.1403 1.25 10.8953 1.25ZM7.77026 10.2525H14.0203C15.9303 10.2525 17.4578 11.7806 17.4578 13.69V18.125H4.33276V13.69C4.33276 11.7806 5.86026 10.2525 7.77026 10.2525Z" fill="#FFFFE6"/>
</g>
</svg>
