<svg width="21" height="20" viewBox="0 0 21 20" fill="none" xmlns="http://www.w3.org/2000/svg">
<g id="submit">
<g id="Group">
<path id="Vector" d="M7.12476 10L2.12476 3.75L18.3748 10L2.12476 16.25L7.12476 10Z" fill="#FFFFE6"/>
<path id="Vector_2" d="M2.12505 16.8751C1.92974 16.8751 1.74086 16.7835 1.6203 16.6193C1.45368 16.3911 1.46036 16.0798 1.6368 15.8595L6.3243 10.0001L1.6368 4.14071C1.46036 3.9204 1.45368 3.60909 1.6203 3.38084C1.78661 3.15378 2.08536 3.06528 2.34905 3.16659L18.5991 9.41659C18.8404 9.50934 18.9997 9.74128 18.9997 10.0001C18.9997 10.2589 18.8404 10.4908 18.5991 10.5836L2.34905 16.8336C2.2758 16.8616 2.1998 16.8751 2.12505 16.8751ZM4.05468 5.16184L7.61274 9.60946C7.79555 9.83771 7.79555 10.1625 7.61274 10.3907L4.05468 14.8383L16.6337 10.0001L4.05468 5.16184Z" fill="#FFFFE6"/>
</g>
</g>
</svg>
