<svg width="21" height="20" viewBox="0 0 21 20" fill="none" xmlns="http://www.w3.org/2000/svg">
<g id="cancel (2) 1">
<path id="Vector" d="M16.5536 3.90408C13.1867 0.537182 7.72874 0.537182 4.36184 3.90408C0.994946 7.27097 0.994946 12.7289 4.36184 16.0958C7.72874 19.4627 13.1867 19.4627 16.5536 16.0958C19.9205 12.7289 19.9198 7.27097 16.5536 3.90408ZM14.1149 12.682C14.2443 12.8113 14.3169 12.9867 14.3169 13.1696C14.3169 13.3525 14.2443 13.5279 14.1149 13.6572C13.9856 13.7865 13.8102 13.8591 13.6274 13.8591C13.4445 13.8591 13.2691 13.7865 13.1398 13.6572L10.4577 10.9751L7.77563 13.6572C7.71174 13.7214 7.63576 13.7724 7.55209 13.8072C7.46841 13.842 7.37868 13.86 7.28805 13.86C7.19742 13.86 7.10769 13.842 7.02401 13.8072C6.94033 13.7724 6.86436 13.7214 6.80046 13.6572C6.73636 13.5932 6.68551 13.5172 6.65081 13.4335C6.61612 13.3499 6.59826 13.2602 6.59826 13.1696C6.59826 13.079 6.61612 12.9893 6.65081 12.9057C6.68551 12.822 6.73636 12.746 6.80046 12.682L9.48253 9.99994L6.80046 7.31787C6.67115 7.18856 6.5985 7.01317 6.5985 6.83029C6.5985 6.64741 6.67115 6.47201 6.80046 6.3427C6.92978 6.21338 7.10517 6.14073 7.28805 6.14073C7.47093 6.14073 7.64632 6.21338 7.77563 6.3427L10.4577 9.02477L13.1398 6.3427C13.2038 6.27867 13.2798 6.22788 13.3635 6.19322C13.4471 6.15857 13.5368 6.14073 13.6274 6.14073C13.7179 6.14073 13.8076 6.15857 13.8912 6.19322C13.9749 6.22788 14.0509 6.27867 14.1149 6.3427C14.179 6.40673 14.2298 6.48275 14.2644 6.56641C14.2991 6.65007 14.3169 6.73973 14.3169 6.83029C14.3169 6.92084 14.2991 7.01051 14.2644 7.09417C14.2298 7.17783 14.179 7.25384 14.1149 7.31787L11.4329 9.99994L14.1149 12.682Z" fill="#FFFFE6"/>
</g>
</svg>
