<svg width="21" height="21" viewBox="0 0 21 21" fill="none" xmlns="http://www.w3.org/2000/svg">
<g id="Completed">
<path id="Vector" fill-rule="evenodd" clip-rule="evenodd" d="M10.5 19.0837C15.1023 19.0837 18.8333 15.3527 18.8333 10.7503C18.8333 6.14795 15.1023 2.41699 10.5 2.41699C5.89758 2.41699 2.16663 6.14795 2.16663 10.7503C2.16663 15.3527 5.89758 19.0837 10.5 19.0837ZM14.9756 8.1132C15.13 7.94258 15.1168 7.67908 14.9462 7.5247C14.7755 7.37028 14.512 7.38345 14.3577 7.55412L9.367 13.0701L6.621 10.4489C6.45454 10.29 6.19079 10.2962 6.03188 10.4626C5.873 10.6291 5.87913 10.8928 6.04558 11.0517L9.10117 13.9684L9.41071 14.2639L9.69783 13.9465L14.9756 8.1132Z" fill="#1E1E1E"/>
</g>
</svg>
