<svg width="26" height="20" viewBox="0 0 26 20" fill="none" xmlns="http://www.w3.org/2000/svg">
<g id="date-check-out-icon" clip-path="url(#clip0_2224_5814)">
<path id="Vector" fill-rule="evenodd" clip-rule="evenodd" d="M2.59025 1.73135H4.1768V3.84837C4.1768 4.36421 4.38499 4.82643 4.73019 5.17601C5.56051 6.0117 6.94862 6.02682 7.80478 5.22136C8.1807 4.86592 8.40937 4.38567 8.40937 3.84837V1.73135H11.6132V3.84837C11.6132 4.15748 11.6892 4.44807 11.8253 4.70648C11.9242 4.8942 12.0549 5.06582 12.2114 5.21502L12.3289 5.32423C12.4162 5.39542 12.5098 5.46026 12.6098 5.5178L12.6249 5.52657L12.6283 5.52852L12.6405 5.53486L12.6483 5.53974L12.6556 5.54364L12.6688 5.55046L12.6712 5.55193L12.6868 5.56021L12.6892 5.56168L12.7024 5.56802L12.7097 5.57192L12.718 5.5763L12.7307 5.58215L12.7341 5.58411L12.7497 5.59191L12.7512 5.59239L12.7663 5.59971L12.7721 5.60263L12.7819 5.60702L12.7936 5.61238L12.7984 5.61482L12.8145 5.62165L12.8311 5.62945L12.836 5.6314L12.8472 5.63627L12.8574 5.64066L12.8638 5.6431L12.8789 5.64944H12.8804L12.8969 5.65627L12.9008 5.65822L12.914 5.66309L12.9228 5.6665L12.9306 5.66943L12.9452 5.67479L12.9476 5.67577L12.9642 5.68162L12.9671 5.68259L12.9818 5.68796L12.9896 5.69039L12.9988 5.69381L13.0115 5.6982L13.0159 5.69966L13.033 5.70551L13.0339 5.706L13.0505 5.71087L13.0569 5.71282L13.0676 5.71624L13.0798 5.71965L13.0851 5.72111L13.1027 5.72647L13.1202 5.73135L13.1256 5.73281L13.1378 5.73623L13.1485 5.73915L13.1553 5.7411L13.1719 5.74549H13.1729L13.1909 5.75037L13.1948 5.75134L13.209 5.75427L13.2182 5.7567L13.2265 5.75817L13.2421 5.76207L13.2446 5.76256L13.2626 5.76646L13.2655 5.76694L13.2806 5.76987L13.2889 5.77182L13.2992 5.77328L13.3128 5.77621L13.3172 5.77718L13.3353 5.78059H13.3367L13.3538 5.78352L13.3606 5.78498L13.3718 5.78645L13.385 5.7884L13.3904 5.78937L13.4089 5.7923L13.4274 5.79473L13.4333 5.79522L13.4459 5.79717L13.4571 5.79864L13.4645 5.79912L13.4815 5.80156H13.483L13.502 5.80351L13.5059 5.804L13.5205 5.80497L13.5308 5.80595L13.5391 5.80692L13.5556 5.8079L13.5581 5.80839L13.5771 5.80985H13.5795L13.5961 5.81082L13.6049 5.81131L13.6151 5.8118L13.6297 5.81277H13.6336L13.6527 5.81326L13.6541 5.81375L13.6717 5.81424H13.6907L13.7043 5.81472H13.7512L13.7672 5.81424H13.7863L13.795 5.81375L13.8048 5.81326L13.817 5.81277H13.8233L13.8389 5.8118H13.8423L13.8609 5.81082H13.8613L13.8794 5.80985L13.8828 5.80936L13.8984 5.80839L13.9042 5.8079L13.9169 5.80692L13.9262 5.80595L13.9355 5.80497L13.9476 5.804L13.954 5.80351L13.9691 5.80156H13.9725L13.9905 5.79912H13.991L14.0091 5.79717L14.012 5.79668L14.0276 5.79473L14.0335 5.79376L14.0461 5.7923L14.0549 5.79083L14.0642 5.78937L14.0759 5.78742L14.0827 5.78645L14.0973 5.78401L14.1007 5.78352L14.1183 5.78059H14.1188L14.1368 5.77718L14.1393 5.77669L14.1549 5.77377L14.1607 5.77279L14.1729 5.77036L14.1817 5.76841L14.1909 5.76646L14.2022 5.76402L14.209 5.76256L14.2231 5.75914L14.227 5.75865L14.2441 5.75475L14.2446 5.75427L14.2621 5.75037L14.2646 5.74939L14.2797 5.74549L14.285 5.74451L14.2972 5.7411L14.3055 5.73915L14.3153 5.73623L14.326 5.73379L14.3328 5.73135L14.3465 5.72745L14.3499 5.72647L14.3665 5.72209L14.3674 5.7216L14.385 5.71624L14.3865 5.71575L14.4021 5.71087L14.4069 5.70941L14.4191 5.70551L14.4269 5.70307L14.4362 5.69966L14.4469 5.69625L14.4532 5.6943L14.4669 5.68942L14.4708 5.68796L14.4864 5.68259L14.4874 5.68211L14.5044 5.67577L14.5064 5.67528L14.521 5.66992L14.5254 5.66797L14.5381 5.66309L14.5454 5.66017L14.5547 5.65675L14.5649 5.65236L14.5712 5.64993L14.5839 5.64456L14.5878 5.6431L14.6034 5.63676L14.6044 5.63627L14.6205 5.62945L14.6224 5.62847L14.6371 5.62214L14.6414 5.62018L14.6531 5.61482L14.66 5.61141L14.6692 5.60751L14.6785 5.60263L14.6853 5.59971L14.6975 5.59386L14.7014 5.59239L14.716 5.58459H14.7175L14.7331 5.5763L14.7346 5.57582L14.7487 5.56802L14.7531 5.56607L14.7648 5.56021L14.7711 5.5568L14.7804 5.55193L14.7892 5.54705L14.796 5.54364L14.8072 5.5373L14.8111 5.53486L14.8253 5.52706L14.8267 5.52657L14.8418 5.5178C14.896 5.48659 14.9476 5.45392 14.9979 5.41882L15.13 5.32374C15.3426 5.15017 15.5161 4.93954 15.6385 4.70161C15.7716 4.44515 15.8457 4.15602 15.8457 3.84837V1.73135H17.502C17.974 1.73135 18.404 1.9254 18.7165 2.23745C19.0286 2.54803 19.2226 2.97855 19.2226 3.45149V9.40517H18.6712V6.7806H1.42107V18.1648C1.42107 18.9083 2.03004 19.5173 2.77407 19.5173H17.3182C18.0627 19.5173 18.6712 18.9074 18.6712 18.1648V15.8752H19.2226V18.2799C19.2226 18.7528 19.0286 19.1833 18.717 19.4944C18.404 19.8059 17.974 20 17.502 20H2.59025C2.11829 20 1.68874 19.8064 1.3767 19.4944C1.06368 19.1814 0.870117 18.7513 0.870117 18.2799V3.45149C0.870117 2.98001 1.06368 2.54998 1.37524 2.23793C1.68874 1.92491 2.11878 1.73135 2.59025 1.73135ZM12.8989 0.681131C12.8989 0.305217 13.2699 0 13.7292 0C14.1885 0 14.56 0.305217 14.56 0.681131V3.84837C14.56 4.22379 14.1885 4.52901 13.7292 4.52901C13.2699 4.52901 12.8989 4.22379 12.8989 3.84837V0.681131ZM5.46251 0.681131C5.46251 0.305217 5.83404 0 6.29333 0C6.75261 0 7.12365 0.305217 7.12365 0.681131V3.84837C7.12365 4.22379 6.75261 4.52901 6.29333 4.52901C5.83404 4.52901 5.46251 4.22379 5.46251 3.84837V0.681131ZM20.6439 16.6597C20.716 15.9386 20.775 15.0775 20.8189 14.3925H17.1193V10.8879H20.8945C20.8755 10.2023 20.8375 9.33983 20.7799 8.61677C20.7331 8.32764 21.0734 8.14237 21.2923 8.32911L25.7238 12.3754C25.8555 12.4881 25.8711 12.6865 25.758 12.8181L25.7219 12.8537L21.1558 16.9517C20.9316 17.1414 20.5966 16.9425 20.6439 16.6597ZM3.96666 13.9444H6.43179C6.60391 13.9444 6.7453 14.0863 6.7453 14.2584V16.3091C6.7453 16.4807 6.60342 16.6231 6.43179 16.6231H3.96666C3.79454 16.6231 3.65266 16.4812 3.65266 16.3091V14.2584C3.65266 14.0858 3.79406 13.9444 3.96666 13.9444ZM13.6419 9.13603H16.1066C16.2641 9.13603 16.3952 9.25451 16.4172 9.40517H15.6371V11.8147H13.6419C13.4698 11.8147 13.3275 11.6733 13.3275 11.5002V9.45002C13.3275 9.27743 13.4689 9.13603 13.6419 9.13603ZM13.6419 13.9444H15.6371V15.8752H16.4206V16.3091C16.4206 16.4807 16.2782 16.6231 16.1066 16.6231H13.6419C13.4698 16.6231 13.3275 16.4812 13.3275 16.3091V14.2584C13.3275 14.0858 13.4689 13.9444 13.6419 13.9444ZM8.8394 9.13603H11.3045C11.4767 9.13603 11.618 9.2784 11.618 9.45002V11.5002C11.618 11.6724 11.4762 11.8147 11.3045 11.8147H8.8394C8.66729 11.8147 8.52541 11.6733 8.52541 11.5002V9.45002C8.52541 9.27743 8.6668 9.13603 8.8394 9.13603ZM3.96666 9.13603H6.43179C6.60391 9.13603 6.7453 9.2784 6.7453 9.45002V11.5002C6.7453 11.6724 6.60342 11.8147 6.43179 11.8147H3.96666C3.79454 11.8147 3.65266 11.6733 3.65266 11.5002V9.45002C3.65266 9.27743 3.79406 9.13603 3.96666 9.13603ZM8.8394 13.9444H11.3045C11.4767 13.9444 11.618 14.0863 11.618 14.2584V16.3091C11.618 16.4807 11.4762 16.6231 11.3045 16.6231H8.8394C8.66729 16.6231 8.52541 16.4812 8.52541 16.3091V14.2584C8.52541 14.0858 8.6668 13.9444 8.8394 13.9444Z" fill="#1E1E1E"/>
</g>
<defs>
<clipPath id="clip0_2224_5814">
<rect width="24.9634" height="20" fill="white" transform="translate(0.870117)"/>
</clipPath>
</defs>
</svg>
