<svg width="20" height="21" viewBox="0 0 20 21" fill="none" xmlns="http://www.w3.org/2000/svg">
<g id="visibility_black_24dp (3) 2" clip-path="url(#clip0_1073_3468)">
<path id="Vector" d="M9.99992 4.5C5.83325 4.5 2.27492 7.09167 0.833252 10.75C2.27492 14.4083 5.83325 17 9.99992 17C14.1666 17 17.7249 14.4083 19.1666 10.75C17.7249 7.09167 14.1666 4.5 9.99992 4.5ZM9.99992 14.9167C7.69992 14.9167 5.83325 13.05 5.83325 10.75C5.83325 8.45 7.69992 6.58333 9.99992 6.58333C12.2999 6.58333 14.1666 8.45 14.1666 10.75C14.1666 13.05 12.2999 14.9167 9.99992 14.9167ZM9.99992 8.25C8.61659 8.25 7.49992 9.36667 7.49992 10.75C7.49992 12.1333 8.61659 13.25 9.99992 13.25C11.3833 13.25 12.4999 12.1333 12.4999 10.75C12.4999 9.36667 11.3833 8.25 9.99992 8.25Z" fill="#1E1E1E"/>
</g>
<defs>
<clipPath id="clip0_1073_3468">
<rect width="20" height="20" fill="white" transform="translate(0 0.75)"/>
</clipPath>
</defs>
</svg>
