<svg width="21" height="21" viewBox="0 0 21 21" fill="none" xmlns="http://www.w3.org/2000/svg">
<g id="filter (1)">
<path id="Vector" d="M1.75 4.87539H1.83875C1.97517 5.41138 2.28629 5.88664 2.72295 6.22608C3.15961 6.56553 3.69692 6.74981 4.25 6.74981C4.80308 6.74981 5.34039 6.56553 5.77705 6.22608C6.21371 5.88664 6.52483 5.41138 6.66125 4.87539H19.25C19.4158 4.87539 19.5747 4.80954 19.6919 4.69233C19.8092 4.57512 19.875 4.41615 19.875 4.25039C19.875 4.08463 19.8092 3.92566 19.6919 3.80845C19.5747 3.69124 19.4158 3.62539 19.25 3.62539H6.66125C6.52483 3.0894 6.21371 2.61414 5.77705 2.2747C5.34039 1.93526 4.80308 1.75098 4.25 1.75098C3.69692 1.75098 3.15961 1.93526 2.72295 2.2747C2.28629 2.61414 1.97517 3.0894 1.83875 3.62539H1.75C1.58424 3.62539 1.42527 3.69124 1.30806 3.80845C1.19085 3.92566 1.125 4.08463 1.125 4.25039C1.125 4.41615 1.19085 4.57512 1.30806 4.69233C1.42527 4.80954 1.58424 4.87539 1.75 4.87539ZM4.25 3.00039C4.49723 3.00039 4.7389 3.0737 4.94446 3.21106C5.15002 3.34841 5.31024 3.54363 5.40485 3.77204C5.49946 4.00045 5.52421 4.25178 5.47598 4.49426C5.42775 4.73673 5.3087 4.95946 5.13388 5.13428C4.95907 5.30909 4.73634 5.42814 4.49386 5.47637C4.25139 5.52461 4.00005 5.49985 3.77165 5.40524C3.54324 5.31063 3.34801 5.15042 3.21066 4.94485C3.07331 4.73929 3 4.49762 3 4.25039C3 3.91887 3.1317 3.60093 3.36612 3.36651C3.60054 3.13209 3.91848 3.00039 4.25 3.00039ZM19.25 9.87539H19.1612C19.0248 9.3394 18.7137 8.86414 18.2771 8.5247C17.8404 8.18526 17.3031 8.00098 16.75 8.00098C16.1969 8.00098 15.6596 8.18526 15.2229 8.5247C14.7863 8.86414 14.4752 9.3394 14.3387 9.87539H1.75C1.58424 9.87539 1.42527 9.94124 1.30806 10.0585C1.19085 10.1757 1.125 10.3346 1.125 10.5004C1.125 10.6662 1.19085 10.8251 1.30806 10.9423C1.42527 11.0595 1.58424 11.1254 1.75 11.1254H14.3387C14.4752 11.6614 14.7863 12.1366 15.2229 12.4761C15.6596 12.8155 16.1969 12.9998 16.75 12.9998C17.3031 12.9998 17.8404 12.8155 18.2771 12.4761C18.7137 12.1366 19.0248 11.6614 19.1612 11.1254H19.25C19.4158 11.1254 19.5747 11.0595 19.6919 10.9423C19.8092 10.8251 19.875 10.6662 19.875 10.5004C19.875 10.3346 19.8092 10.1757 19.6919 10.0585C19.5747 9.94124 19.4158 9.87539 19.25 9.87539ZM16.75 11.7504C16.5028 11.7504 16.2611 11.6771 16.0555 11.5397C15.85 11.4024 15.6898 11.2072 15.5951 10.9787C15.5005 10.7503 15.4758 10.499 15.524 10.2565C15.5722 10.0141 15.6913 9.79132 15.8661 9.61651C16.0409 9.44169 16.2637 9.32264 16.5061 9.27441C16.7486 9.22618 16.9999 9.25093 17.2284 9.34554C17.4568 9.44015 17.652 9.60037 17.7893 9.80593C17.9267 10.0115 18 10.2532 18 10.5004C18 10.8319 17.8683 11.1499 17.6339 11.3843C17.3995 11.6187 17.0815 11.7504 16.75 11.7504ZM19.25 16.1254H12.9113C12.7748 15.5894 12.4637 15.1141 12.0271 14.7747C11.5904 14.4353 11.0531 14.251 10.5 14.251C9.94692 14.251 9.40961 14.4353 8.97295 14.7747C8.53629 15.1141 8.22517 15.5894 8.08875 16.1254H1.75C1.58424 16.1254 1.42527 16.1912 1.30806 16.3085C1.19085 16.4257 1.125 16.5846 1.125 16.7504C1.125 16.9162 1.19085 17.0751 1.30806 17.1923C1.42527 17.3095 1.58424 17.3754 1.75 17.3754H8.08875C8.22517 17.9114 8.53629 18.3866 8.97295 18.7261C9.40961 19.0655 9.94692 19.2498 10.5 19.2498C11.0531 19.2498 11.5904 19.0655 12.0271 18.7261C12.4637 18.3866 12.7748 17.9114 12.9113 17.3754H19.25C19.4158 17.3754 19.5747 17.3095 19.6919 17.1923C19.8092 17.0751 19.875 16.9162 19.875 16.7504C19.875 16.5846 19.8092 16.4257 19.6919 16.3085C19.5747 16.1912 19.4158 16.1254 19.25 16.1254ZM10.5 18.0004C10.2528 18.0004 10.0111 17.9271 9.80554 17.7897C9.59998 17.6524 9.43976 17.4572 9.34515 17.2287C9.25054 17.0003 9.22579 16.749 9.27402 16.5065C9.32225 16.2641 9.4413 16.0413 9.61612 15.8665C9.79093 15.6917 10.0137 15.5726 10.2561 15.5244C10.4986 15.4762 10.7499 15.5009 10.9784 15.5955C11.2068 15.6902 11.402 15.8504 11.5393 16.0559C11.6767 16.2615 11.75 16.5032 11.75 16.7504C11.75 17.0819 11.6183 17.3999 11.3839 17.6343C11.1495 17.8687 10.8315 18.0004 10.5 18.0004Z" fill="#FFFFE6"/>
</g>
</svg>
