<svg width="21" height="20" viewBox="0 0 21 20" fill="none" xmlns="http://www.w3.org/2000/svg">
<g id="images">
<path id="Vector" d="M18.2081 5.47636L14.9855 5.32011L14.798 3.21855C14.7589 2.77714 14.3644 2.46855 13.9034 2.5037L2.34093 3.45292C1.87999 3.49198 1.54796 3.86308 1.58312 4.30058L2.41124 13.5115C2.45031 13.9529 2.84874 14.2615 3.30577 14.2264L3.89171 14.1795L3.79796 15.9685C3.77452 16.4607 4.15734 16.8592 4.67296 16.8865L17.5714 17.4998C18.087 17.5232 18.5128 17.1639 18.5401 16.6717L19.0831 6.38651C19.1066 5.89823 18.7198 5.4998 18.2081 5.47636ZM4.34093 5.68339L4.06359 10.949L3.3839 11.9139L2.7589 4.96073V4.9412V4.92167C2.77843 4.72636 2.92687 4.57011 3.12999 4.55448L13.3253 3.71855C13.5284 3.70292 13.7042 3.83573 13.7355 4.02714C13.7355 4.03495 13.7472 4.03495 13.7472 4.04276C13.7472 4.04667 13.7589 4.05058 13.7589 4.05839L13.8644 5.26151L5.30968 4.85136C4.79406 4.83573 4.36437 5.19511 4.34093 5.68339ZM17.3917 14.9373L15.5675 12.7771L14.4933 11.4998C14.3995 11.3865 14.2472 11.2928 14.0792 11.285C13.9112 11.2771 13.7862 11.3435 13.6456 11.4451L13.005 11.91C12.8683 11.992 12.7628 12.0467 12.6183 12.0389C12.4776 12.031 12.3526 11.9764 12.2628 11.8904C12.2316 11.8592 12.173 11.8045 12.1261 11.7576L10.4542 9.84745C10.3331 9.69511 10.1339 9.59745 9.91515 9.58573C9.69249 9.57401 9.47765 9.66776 9.33702 9.80448L5.38781 14.0545L5.12218 14.3435L5.1339 14.0779L5.39952 9.04276L5.52843 6.58573V6.5662V6.54667C5.58312 6.33573 5.77062 6.18339 5.99327 6.19511L13.9698 6.57792L15.0909 6.63261L17.3683 6.74198C17.5948 6.7537 17.7706 6.92558 17.7745 7.14042C17.7745 7.14823 17.7862 7.15214 17.7862 7.15995C17.7862 7.16776 17.798 7.17167 17.798 7.17948L17.3917 14.9373Z" fill="#FFFFE6"/>
<path id="Vector_2" d="M14.9111 10.2461C15.6689 10.2461 16.2861 9.62891 16.2861 8.87109C16.2861 8.11328 15.6729 7.49609 14.9111 7.49609C14.1533 7.49609 13.5361 8.10938 13.5361 8.87109C13.5361 9.63281 14.1494 10.2461 14.9111 10.2461Z" fill="#FFFFE6"/>
</g>
</svg>
