<svg width="21" height="21" viewBox="0 0 21 21" fill="none" xmlns="http://www.w3.org/2000/svg">
<g id="offer" clip-path="url(#clip0_1003_1954)">
<path id="Vector" d="M18.3417 10.1503L10.8459 2.65449C10.5324 2.34298 10.1087 2.16778 9.66675 2.16699H3.83341C2.91258 2.16699 2.16675 2.91283 2.16675 3.83366V9.66699C2.16675 10.1295 2.35425 10.5462 2.65841 10.8462L10.1584 18.3462C10.4584 18.6462 10.8751 18.8337 11.3334 18.8337C11.7917 18.8337 12.2126 18.6462 12.5126 18.3462L18.3459 12.5128C18.6459 12.2087 18.8334 11.792 18.8334 11.3337C18.8334 10.8712 18.6459 10.4545 18.3417 10.1503ZM5.08341 6.33366C4.39175 6.33366 3.83341 5.77533 3.83341 5.08366C3.83341 4.39199 4.39175 3.83366 5.08341 3.83366C5.77508 3.83366 6.33341 4.39199 6.33341 5.08366C6.33341 5.77533 5.77508 6.33366 5.08341 6.33366Z" fill="#FFFFE6"/>
</g>
<defs>
<clipPath id="clip0_1003_1954">
<rect width="20" height="20" fill="white" transform="translate(0.5 0.5)"/>
</clipPath>
</defs>
</svg>
