<svg width="21" height="20" viewBox="0 0 21 20" fill="none" xmlns="http://www.w3.org/2000/svg">
<g id="order-list">
<path id="Vector" d="M11.1449 0.626182C11.022 0.626027 10.9002 0.650108 10.7866 0.69705C10.6729 0.743991 10.5697 0.812871 10.4827 0.899751C10.3957 0.986632 10.3267 1.08981 10.2796 1.20338C10.2325 1.31695 10.2083 1.43869 10.2083 1.56163C10.2084 1.60294 10.2004 1.64386 10.1847 1.68205C10.1689 1.72024 10.1458 1.75493 10.1166 1.78414C10.0874 1.81335 10.0527 1.83648 10.0145 1.85222C9.97633 1.86795 9.9354 1.87597 9.8941 1.87581L8.01847 1.87463C7.97758 1.87463 7.93709 1.88271 7.89933 1.89839C7.86156 1.91407 7.82726 1.93706 7.7984 1.96603C7.76954 1.995 7.74669 2.02939 7.73114 2.06721C7.7156 2.10504 7.70768 2.14556 7.70784 2.18645V3.7479C7.70784 3.91916 7.84012 4.06444 8.01847 4.06208H14.2714C14.4497 4.06208 14.5832 3.92034 14.5832 3.7479V2.18645C14.5833 2.14546 14.5754 2.10484 14.5598 2.06694C14.5441 2.02904 14.5212 1.9946 14.4922 1.96561C14.4632 1.93663 14.4288 1.91366 14.3909 1.89805C14.353 1.88243 14.3123 1.87448 14.2714 1.87463H12.3957C12.3545 1.87479 12.3137 1.86681 12.2756 1.85115C12.2375 1.83549 12.2028 1.81246 12.1736 1.78338C12.1444 1.7543 12.1213 1.71974 12.1055 1.68169C12.0897 1.64363 12.0815 1.60284 12.0815 1.56163C12.0817 1.43859 12.0576 1.31672 12.0106 1.20302C11.9636 1.08931 11.8946 0.985993 11.8076 0.898987C11.7206 0.811982 11.6172 0.742996 11.5035 0.695981C11.3898 0.648966 11.268 0.626026 11.1449 0.626182ZM11.1449 1.24982C11.1876 1.24719 11.2303 1.25333 11.2705 1.26784C11.3106 1.28235 11.3474 1.30494 11.3786 1.33421C11.4097 1.36347 11.4345 1.3988 11.4514 1.43802C11.4684 1.47723 11.4771 1.5195 11.4771 1.56222C11.4771 1.60495 11.4684 1.64722 11.4514 1.68643C11.4345 1.72564 11.4097 1.76097 11.3786 1.79024C11.3474 1.81951 11.3106 1.84209 11.2705 1.85661C11.2303 1.87112 11.1876 1.87725 11.1449 1.87463C11.0619 1.87463 10.9823 1.84166 10.9236 1.78296C10.8649 1.72426 10.8319 1.64465 10.8319 1.56163C10.8319 1.47862 10.8649 1.39901 10.9236 1.34031C10.9823 1.28161 11.0619 1.24982 11.1449 1.24982ZM6.14757 2.49945C5.29125 2.60693 4.58376 3.19159 4.58376 4.06208V15.6253H5.20976V4.06326C5.20976 3.54947 5.62079 3.12544 6.14521 3.12544H7.0842V2.50063L6.14757 2.49945ZM15.2092 2.49945V3.12544H16.1458C16.6655 3.19041 17.0836 3.54829 17.0836 4.06208V16.7604C17.0848 17.6261 16.395 18.4376 15.5198 18.4376H4.89558C4.78928 18.4376 4.68416 18.4257 4.58376 18.4021V19.0636C4.58376 19.2431 4.72668 19.3754 4.89676 19.3754H17.3954C17.4365 19.3758 17.4772 19.3681 17.5152 19.3527C17.5532 19.3373 17.5878 19.3145 17.617 19.2856C17.6461 19.2567 17.6692 19.2223 17.6849 19.1843C17.7006 19.1464 17.7086 19.1058 17.7084 19.0647V4.06208C17.7089 3.85674 17.6688 3.65333 17.5904 3.46353C17.5121 3.27373 17.397 3.10129 17.2518 2.95609C17.1066 2.81089 16.9341 2.69581 16.7443 2.61744C16.5545 2.53908 16.3511 2.49898 16.1458 2.49945H15.2092ZM6.14403 3.74908C6.10298 3.74908 6.06234 3.75718 6.02443 3.77293C5.98652 3.78867 5.95209 3.81174 5.92312 3.84082C5.89415 3.8699 5.87121 3.90442 5.85561 3.94239C5.84001 3.98035 5.83205 4.02103 5.83221 4.06208V15.6253H14.2714C14.4426 15.6265 14.582 15.7659 14.5832 15.9371L14.5855 16.7604C14.5855 17.2942 15.0048 17.8127 15.5186 17.8127C16.0336 17.8127 16.4588 17.293 16.4588 16.7615L16.4576 4.06208C16.4578 4.02083 16.4497 3.97996 16.434 3.94184C16.4183 3.90371 16.3951 3.86909 16.3659 3.83998C16.3367 3.81087 16.3019 3.78785 16.2638 3.77224C16.2256 3.75664 16.1847 3.74877 16.1434 3.74908H15.208C15.2086 3.87231 15.1848 3.99444 15.138 4.10843C15.0912 4.22241 15.0222 4.32599 14.9351 4.41319C14.848 4.50038 14.7445 4.56946 14.6306 4.61644C14.5167 4.66342 14.3946 4.68736 14.2714 4.68689H8.01847C7.89547 4.68674 7.77371 4.66236 7.66013 4.61514C7.54655 4.56793 7.44339 4.49881 7.35652 4.41172C7.26966 4.32464 7.20079 4.2213 7.15387 4.1076C7.10694 3.9939 7.08287 3.87208 7.08302 3.74908H6.14403ZM7.0842 6.87434H8.64447C9.06141 6.87434 9.06141 7.50033 8.64447 7.50033H7.39484V9.37832H9.58228V9.06414C9.60354 8.64839 10.1917 8.65075 10.2083 9.06414V9.69014C10.2083 9.73134 10.2001 9.77214 10.1843 9.81019C10.1685 9.84825 10.1454 9.8828 10.1162 9.91188C10.087 9.94096 10.0524 9.96399 10.0142 9.97965C9.97613 9.99531 9.9353 10.0033 9.8941 10.0031H7.08302C7.04192 10.0031 7.00122 9.99504 6.96324 9.97931C6.92527 9.96358 6.89076 9.94053 6.8617 9.91146C6.83263 9.8824 6.80958 9.84789 6.79385 9.80992C6.77812 9.77194 6.77002 9.73124 6.77002 9.69014V7.18852C6.77002 7.01489 6.91058 6.87434 7.0842 6.87434ZM9.8882 7.1897C9.95082 7.18821 10.0124 7.20554 10.0651 7.23945C10.1178 7.27336 10.1591 7.3223 10.1836 7.37992C10.2082 7.43755 10.2149 7.50122 10.2028 7.56269C10.1908 7.62417 10.1606 7.68062 10.1162 7.72475L8.86652 8.97556C8.83743 9.00484 8.80283 9.02808 8.76473 9.04394C8.72662 9.0598 8.68575 9.06797 8.64447 9.06797C8.60319 9.06797 8.56232 9.0598 8.52421 9.04394C8.48611 9.02808 8.45151 9.00484 8.42242 8.97556L7.7976 8.34956C7.50232 8.05428 7.94524 7.61136 8.24053 7.90664L8.64447 8.31059L9.67323 7.28064C9.73012 7.22322 9.80736 7.19054 9.8882 7.1897ZM11.4579 7.50033H13.9572C14.3741 7.50033 14.3741 8.12633 13.9572 8.12633H11.4579C11.041 8.12633 11.041 7.50033 11.4579 7.50033ZM15.208 8.75233C15.6332 8.74288 15.6332 9.38777 15.208 9.37832H11.4567C11.0315 9.38777 11.0315 8.74288 11.4567 8.75233H15.208ZM7.0842 11.2504H8.64447C9.06141 11.2504 9.06141 11.8764 8.64447 11.8764H7.39484V13.7544H9.58228V13.4402C9.60354 13.0245 10.1917 13.0268 10.2083 13.4402V14.0662C10.2083 14.1074 10.2001 14.1482 10.1843 14.1863C10.1685 14.2243 10.1454 14.2589 10.1162 14.288C10.087 14.317 10.0524 14.3401 10.0142 14.3557C9.97613 14.3714 9.9353 14.3794 9.8941 14.3792H7.08302C7.04182 14.3792 7.00102 14.3711 6.96297 14.3553C6.92492 14.3395 6.89036 14.3163 6.86128 14.2871C6.8322 14.2579 6.80917 14.2233 6.79351 14.1852C6.77785 14.1471 6.76987 14.1062 6.77002 14.065V11.5646C6.77002 11.391 6.91058 11.2492 7.0842 11.2504ZM10.1162 12.1008L8.86652 13.3504C8.83743 13.3797 8.80283 13.403 8.76473 13.4188C8.72662 13.4347 8.68575 13.4429 8.64447 13.4429C8.60319 13.4429 8.56232 13.4347 8.52421 13.4188C8.48611 13.403 8.45151 13.3797 8.42242 13.3504L7.7976 12.7245C7.50232 12.4292 7.94524 11.9862 8.24053 12.2815L8.64447 12.6855L9.67323 11.6579C9.73197 11.5992 9.81163 11.5662 9.89469 11.5662C9.97776 11.5662 10.0574 11.5992 10.1162 11.6579C10.1749 11.7166 10.2079 11.7963 10.2079 11.8794C10.2079 11.9624 10.1749 12.0421 10.1162 12.1008ZM11.4579 11.8729H13.9572C14.3741 11.8729 14.3741 12.4989 13.9572 12.4989H11.4579C11.041 12.4989 11.041 11.8729 11.4579 11.8729ZM15.208 13.1249C15.6155 13.1355 15.6155 13.7414 15.208 13.7509H11.4567C11.0492 13.7414 11.0492 13.1355 11.4567 13.1249H15.208ZM3.95776 16.2525V16.7615C3.95776 17.2966 4.38297 17.8127 4.8944 17.8127H14.321C14.089 17.5121 13.962 17.1436 13.9595 16.7639L13.9572 16.2525H3.95776Z" fill="#FFFFE6"/>
</g>
</svg>
