<svg width="21" height="20" viewBox="0 0 21 20" fill="none" xmlns="http://www.w3.org/2000/svg">
<g id="reserved">
<path id="Vector" d="M2.98306 8.64967L3.87473 13.1247H3.73306C3.28306 13.1247 2.85806 12.9163 2.58306 12.558C2.29973 12.208 2.20806 11.7497 2.31639 11.3163L2.98306 8.64967ZM17.4056 13.9522C16.9689 14.4855 16.3222 14.7913 15.6331 14.7913H7.36556C6.27639 14.7913 5.33223 14.0163 5.11889 12.9488L4.11889 7.94967C3.98389 7.27301 4.15639 6.57967 4.59306 6.04717C5.02973 5.51467 5.67639 5.20801 6.36556 5.20801H14.6331C15.7222 5.20801 16.6664 5.98301 16.8797 7.05051L17.8797 12.0497C18.0147 12.7263 17.8422 13.4197 17.4056 13.9522ZM14.9572 9.99967C14.9572 9.65467 14.6772 9.37467 14.3322 9.37467H7.66556C7.32056 9.37467 7.04056 9.65467 7.04056 9.99967C7.04056 10.3447 7.32056 10.6247 7.66556 10.6247H14.3322C14.6772 10.6247 14.9572 10.3447 14.9572 9.99967Z" fill="#FFFFE6"/>
</g>
</svg>
