<svg width="21" height="20" viewBox="0 0 21 20" fill="none" xmlns="http://www.w3.org/2000/svg">
<g id="review" clip-path="url(#clip0_1026_1896)">
<path id="Vector" d="M17.416 1.66699H4.08268C3.16602 1.66699 2.41602 2.41699 2.41602 3.33366V18.3337L5.74935 15.0003H17.416C18.3327 15.0003 19.0827 14.2503 19.0827 13.3337V3.33366C19.0827 2.41699 18.3327 1.66699 17.416 1.66699ZM5.74935 11.667V9.60866L11.4827 3.87533C11.6493 3.70866 11.9077 3.70866 12.0743 3.87533L13.5493 5.35033C13.716 5.51699 13.716 5.77533 13.5493 5.94199L7.80768 11.667H5.74935ZM14.916 11.667H9.49935L11.166 10.0003H14.916C15.3743 10.0003 15.7493 10.3753 15.7493 10.8337C15.7493 11.292 15.3743 11.667 14.916 11.667Z" fill="#FFFFE6"/>
</g>
<defs>
<clipPath id="clip0_1026_1896">
<rect width="20" height="20" fill="white" transform="translate(0.749268)"/>
</clipPath>
</defs>
</svg>
