<svg width="21" height="20" viewBox="0 0 21 20" fill="none" xmlns="http://www.w3.org/2000/svg">
<g id="visibility_black_24dp (3) 1" clip-path="url(#clip0_1012_1985)">
<path id="Vector" d="M10.4999 3.75C6.33325 3.75 2.77492 6.34167 1.33325 10C2.77492 13.6583 6.33325 16.25 10.4999 16.25C14.6666 16.25 18.2249 13.6583 19.6666 10C18.2249 6.34167 14.6666 3.75 10.4999 3.75ZM10.4999 14.1667C8.19992 14.1667 6.33325 12.3 6.33325 10C6.33325 7.7 8.19992 5.83333 10.4999 5.83333C12.7999 5.83333 14.6666 7.7 14.6666 10C14.6666 12.3 12.7999 14.1667 10.4999 14.1667ZM10.4999 7.5C9.11659 7.5 7.99992 8.61667 7.99992 10C7.99992 11.3833 9.11659 12.5 10.4999 12.5C11.8833 12.5 12.9999 11.3833 12.9999 10C12.9999 8.61667 11.8833 7.5 10.4999 7.5Z" fill="#FFFFE6"/>
</g>
<defs>
<clipPath id="clip0_1012_1985">
<rect width="20" height="20" fill="white" transform="translate(0.5)"/>
</clipPath>
</defs>
</svg>
