<svg width="20" height="20" viewBox="0 0 20 20" fill="none" xmlns="http://www.w3.org/2000/svg">
<g id="approve 1">
<path id="Vector" d="M9.9991 1.66699C5.41577 1.66699 1.66577 5.41699 1.66577 10.0003C1.66577 14.5837 5.41577 18.3337 9.9991 18.3337C14.5824 18.3337 18.3324 14.5837 18.3324 10.0003C18.3324 5.41699 14.5824 1.66699 9.9991 1.66699ZM13.4991 8.58366L9.4991 12.5837C9.16577 12.917 8.66577 12.917 8.33244 12.5837L6.4991 10.7503C6.16577 10.417 6.16577 9.91699 6.4991 9.58366C6.83244 9.25033 7.33244 9.25033 7.66577 9.58366L8.91577 10.8337L12.3324 7.41699C12.6658 7.08366 13.1658 7.08366 13.4991 7.41699C13.8324 7.75033 13.8324 8.25033 13.4991 8.58366Z" fill="#FFFFE6"/>
</g>
</svg>
