<svg width="21" height="20" viewBox="0 0 21 20" fill="none" xmlns="http://www.w3.org/2000/svg">
<g id="bell 1">
<path id="Vector" d="M15.6604 8.82422C15.6604 5.01172 13.6096 3.71484 11.6917 3.42578C11.6917 3.40625 11.6956 3.38672 11.6956 3.36328C11.6956 2.88281 11.2698 2.5 10.7502 2.5C10.2307 2.5 9.82056 2.88281 9.82056 3.36328C9.82056 3.38672 9.82056 3.40625 9.82446 3.42578C7.90259 3.71875 5.84009 5.01953 5.84009 8.83203C5.84009 13.2773 4.73462 13.7539 3.25024 15.0039H18.2502C16.7737 13.75 15.6604 13.2695 15.6604 8.82422ZM10.7581 17.5C11.8049 17.5 12.6643 16.7227 12.7776 15.8203H8.73853C8.8479 16.7227 9.71118 17.5 10.7581 17.5Z" fill="#FFFFE6"/>
</g>
</svg>
