<svg width="20" height="20" viewBox="0 0 20 20" fill="none" xmlns="http://www.w3.org/2000/svg">
<g id="Completed">
<path id="Vector" fill-rule="evenodd" clip-rule="evenodd" d="M10.0001 18.3337C14.6025 18.3337 18.3334 14.6027 18.3334 10.0003C18.3334 5.39795 14.6025 1.66699 10.0001 1.66699C5.39771 1.66699 1.66675 5.39795 1.66675 10.0003C1.66675 14.6027 5.39771 18.3337 10.0001 18.3337ZM14.4757 7.3632C14.6301 7.19258 14.617 6.92908 14.4463 6.7747C14.2757 6.62028 14.0122 6.63345 13.8578 6.80412L8.86712 12.3201L6.12112 9.69891C5.95466 9.54003 5.69091 9.54616 5.532 9.71262C5.37312 9.87908 5.37925 10.1428 5.54571 10.3017L8.60129 13.2184L8.91083 13.5139L9.19796 13.1965L14.4757 7.3632Z" fill="#FFFFE6"/>
</g>
</svg>
